<svg width="1219" height="1046" viewBox="0 0 1219 1046" fill="none" xmlns="http://www.w3.org/2000/svg">
<path d="M201.44 -137.609C257.443 -143.616 313.884 -121.043 349.914 -78.2304C386.04 -35.3851 400.983 26.8636 389.355 85.6165C374.549 160.329 319.776 228.167 323.661 303.197C326.953 366.764 371.399 415.441 411.474 460.447C451.607 505.587 492.095 560.174 485.033 624.144C480.313 667.317 453.81 709.217 459.759 751.414C465.871 794.35 504.532 822.72 544.402 831.948C584.235 841.277 626.508 836.098 667.784 837.852C792.75 842.94 909.765 914.76 972.913 1025.39" stroke="#FF5E00" stroke-miterlimit="10"/>
<path d="M195.855 -137.3C230.947 -140.751 266.141 -132.57 295.755 -115.174C313.765 -104.63 329.792 -90.6776 342.706 -74.0491C351.259 -62.9069 358.441 -50.6465 364.171 -37.637C377.804 -6.31947 382.796 29.2898 380.079 65.419C379.432 74.0645 378.367 82.679 376.787 91.2295C371.549 120.347 361.447 148.353 351.409 175.585C338.322 210.974 325.122 245.186 323.366 280.737C323.01 288.574 323.133 296.576 323.997 304.606C327.064 333.638 338.884 359.553 354.578 383.965C372.062 411.156 394.368 436.601 414.225 461.087C416.899 464.399 419.572 467.71 422.21 471.123C441.348 495.815 458.633 522.369 468.977 551.185C477.272 574.064 481.011 598.552 477.035 624.467C474.947 638.3 470.633 652.046 465.842 665.627C456.086 693.866 444.355 722.218 448.273 750.975C453.446 788.466 483.897 814.566 517.823 826.857C522.564 828.609 527.318 830.025 532.146 831.238C571.508 840.973 613.112 837.042 653.566 839.878C663.745 840.552 673.838 841.766 683.821 843.282C739.211 852.074 791.616 874.503 836.233 907.203C880.659 939.838 917.046 982.543 942.213 1031.04" stroke="#FF5E00" stroke-miterlimit="10"/>
<path d="M190.233 -136.889C225.632 -140.006 260.819 -130.918 289.97 -112.545C307.664 -101.429 323.149 -86.8691 335.329 -69.6994C343.448 -58.253 350.102 -45.7213 355.113 -32.5067C367.211 -0.81237 370.301 34.705 367.32 70.9671C366.637 79.7128 365.535 88.4277 364.146 97.0434C359.445 126.458 350.959 154.451 342.684 181.266C331.982 215.997 321.614 248.911 322.043 283.167C322.12 290.698 322.675 298.393 323.972 306.118C328.505 334.061 341.357 359.195 357.541 383.433C375.648 410.382 397.888 436.599 416.519 461.796C419.061 465.176 421.47 468.623 423.88 472.071C441.469 497.477 456.205 523.943 464.396 552.468C471.052 575.12 473.321 599.211 468.427 624.693C465.766 638.327 460.975 651.906 455.802 665.354C445.091 693.26 432.465 721.414 436.237 750.573C441.196 787.759 471.658 813.52 505.186 826.015C509.831 827.733 514.549 829.25 519.376 830.463C558.266 840.604 599.203 837.922 638.834 841.838C648.807 842.783 658.694 844.266 668.435 846.154C722.533 856.433 773.263 880.215 815.155 913.905C856.893 947.427 889.519 990.422 911.118 1036.88" stroke="#FF5E00" stroke-miterlimit="10"/>
<path d="M184.705 -136.444C220.374 -139.126 255.722 -129.3 284.411 -109.951C301.789 -98.2622 316.731 -83.0951 328.081 -65.4174C335.673 -53.6996 341.798 -40.8967 346.185 -27.444C356.748 4.62713 357.877 39.9185 354.751 76.5818C353.936 85.3948 353.025 94.1749 351.732 102.823C347.509 132.4 340.662 160.615 334.28 186.945C326.023 221.153 318.523 252.667 321.077 285.496C321.682 292.753 322.67 300.143 324.399 307.561C330.397 334.417 344.282 358.769 361.088 382.765C379.781 409.574 402.028 436.36 419.397 462.37C421.77 465.918 424.047 469.433 426.229 472.916C442.306 498.934 454.42 525.516 460.59 553.681C465.513 576.073 466.504 599.834 460.464 624.918C457.229 638.352 451.998 651.665 446.347 664.946C434.718 692.419 421.123 720.576 424.822 749.935C429.663 786.85 460.005 812.34 493.171 824.937C497.816 826.655 502.401 828.24 507.096 829.521C545.514 840.067 585.819 838.532 624.592 843.63C634.36 844.845 644.041 846.599 653.576 848.756C706.381 860.522 755.401 885.758 794.737 920.268C833.882 954.712 862.652 997.962 880.588 1042.36" stroke="#FF5E00" stroke-miterlimit="10"/>
<path d="M179.081 -136.032C215.056 -138.38 250.528 -127.715 278.623 -107.322C295.686 -95.0607 310.049 -79.1854 320.738 -61.1689C327.896 -49.1469 333.361 -36.0049 337.102 -22.5492C346.131 9.89854 345.358 45.0981 341.932 81.9953C341.08 90.9086 340.133 99.789 339.126 108.535C335.44 138.409 330.172 166.712 325.684 192.557C319.907 226.141 315.239 256.357 319.978 287.891C321.016 294.843 322.567 301.858 324.596 309.039C332.155 334.84 346.977 358.377 364.274 382.2C383.589 408.767 405.674 436.291 421.913 463.045C424.058 466.628 426.203 470.212 428.18 473.964C442.709 500.696 452.274 527.19 456.351 555.199C459.636 577.363 459.252 600.762 452.162 625.48C448.355 638.715 442.646 651.861 436.555 664.875C424.104 691.948 409.35 720.043 413.034 749.735C417.529 786.413 448.015 811.497 480.783 824.297C485.295 826.083 489.975 827.7 494.574 828.948C532.521 839.9 572.158 839.613 610.107 845.791C619.634 847.378 629.146 849.3 638.38 851.695C689.892 864.947 737.201 891.637 773.85 927.035C810.307 962.367 835.316 1005.91 849.59 1048.24" stroke="#FF5E00" stroke-miterlimit="10"/>
<path d="M173.455 -135.62C209.737 -137.633 245.333 -126.13 272.966 -104.761C289.677 -91.8263 303.533 -75.445 313.489 -56.8876C320.178 -44.4604 325.055 -31.1812 328.172 -17.4875C335.667 15.3369 332.897 50.4116 329.267 87.5757C328.378 96.5894 327.527 105.502 326.616 114.28C323.408 144.316 319.778 172.842 317.182 198.202C313.754 231.23 312.012 260.181 318.876 290.287C320.442 296.966 322.33 303.643 324.887 310.55C333.911 335.264 349.765 358.019 367.647 381.702C387.679 408.06 409.603 436.322 424.617 463.788C426.63 467.439 428.511 471.158 430.26 474.945C443.241 502.39 450.125 528.866 452.183 556.515C453.829 578.453 452.036 601.589 443.932 625.842C439.552 638.877 433.366 651.857 426.893 664.738C413.524 691.377 397.802 719.476 401.414 749.367C405.79 785.774 436.155 810.588 468.561 823.489C473.073 825.276 477.658 826.86 482.183 828.31C519.658 839.667 558.627 840.628 595.754 847.886C605.075 849.743 614.286 851.902 623.41 854.6C673.63 869.338 719.17 897.348 753.19 933.768C787.055 970.02 808.305 1013.85 818.82 1054.08" stroke="#FF5E00" stroke-miterlimit="10"/>
<path d="M167.828 -135.207C204.417 -136.886 240.1 -124.443 267.176 -102.132C283.571 -88.6251 296.884 -71.6368 306.107 -52.5387C312.267 -39.8403 316.616 -26.2901 319.146 -12.4595C324.975 20.8096 320.377 55.5903 316.505 93.1224C315.581 102.236 314.729 111.148 313.973 120.093C311.302 150.425 309.191 178.905 308.548 203.914C307.6 236.319 308.688 263.972 317.736 292.784C319.733 299.157 322.149 305.561 325.043 312.13C335.532 335.757 352.417 357.73 370.79 381.24C391.407 407.457 413.302 436.389 427.09 464.566C428.935 468.386 430.684 472.172 432.205 475.994C443.674 504.051 447.974 530.541 447.975 557.932C447.889 579.611 444.818 602.417 435.568 626.271C430.616 639.107 423.952 651.921 417.039 664.535C402.753 690.74 386.063 718.843 389.565 749.035C393.691 785.239 424.104 809.613 456.111 822.717C460.586 824.604 465.075 826.155 469.601 827.605C506.508 839.334 544.941 841.475 581.21 849.915C590.324 852.041 599.293 854.572 608.212 857.54C657.14 873.763 700.969 903.227 732.302 940.534C763.48 977.675 780.97 1021.79 787.825 1059.96" stroke="#FF5E00" stroke-miterlimit="10"/>
<path d="M162.331 -134.862C199.131 -136.239 235.033 -122.925 261.551 -99.6712C277.631 -85.5922 290.401 -67.9971 298.89 -48.3583C304.618 -35.3558 308.344 -21.5676 310.154 -7.53195C314.45 26.1136 307.951 60.8027 303.875 98.6017C302.855 107.682 302.121 116.861 301.46 125.838C299.267 156.332 298.794 185.035 300.043 209.559C301.538 241.441 305.397 267.663 316.665 295.08C319.095 301.147 321.943 307.246 325.364 313.542C337.317 336.082 355.294 357.408 374.229 380.542C395.468 406.518 417.333 436.12 429.824 465.21C431.536 469.097 433.021 473.02 434.41 476.909C444.331 505.679 446.084 532.082 443.934 559.182C442.246 580.533 437.67 603.044 427.503 626.465C421.977 639.103 414.874 651.649 407.447 664.198C392.302 690.104 374.622 717.975 377.919 748.435C381.927 784.367 412.219 808.471 443.865 821.678C448.244 823.532 452.696 825.184 457.185 826.734C493.584 838.97 531.385 842.257 566.831 851.777C575.741 854.173 584.504 856.973 593.122 860.178C640.757 877.887 682.876 908.804 711.559 946.898C740.146 984.959 753.782 1029.33 757.071 1065.47" stroke="#FF5E00" stroke-miterlimit="10"/>
<path d="M156.702 -134.448C193.807 -135.492 229.738 -121.373 255.852 -97.0091C271.617 -82.3581 283.808 -64.0551 291.637 -44.0778C296.8 -30.7032 299.997 -16.644 301.221 -2.47141C303.983 31.5507 295.525 66.014 291.207 104.181C290.151 113.361 289.417 122.539 288.948 131.582C287.196 162.339 288.397 191.163 291.538 215.203C295.512 246.461 302.164 271.487 315.556 297.477C318.55 303.17 321.793 309.064 325.551 315.021C339.064 336.508 357.976 357.019 377.497 380.014C399.358 405.748 421.156 436.121 432.327 465.889C433.811 469.811 435.128 473.902 436.385 477.859C444.758 507.342 443.964 533.658 439.758 560.5C436.434 581.624 430.485 603.773 419.268 626.829C413.17 639.267 405.589 651.648 397.818 663.963C381.756 689.435 363.109 717.31 366.296 748.07C370.09 783.699 400.393 807.464 431.64 820.874C436.019 822.728 440.339 824.447 444.732 825.965C480.659 838.606 517.793 843.14 552.512 853.772C561.216 856.439 569.773 859.509 578.186 862.984C624.529 882.177 664.843 914.515 690.934 953.529C716.835 992.478 726.713 1037.14 726.341 1071.22" stroke="#FF5E00" stroke-miterlimit="10"/>
<path d="M151.071 -134.035C188.482 -134.744 224.537 -119.787 250.093 -94.4812C265.542 -79.2582 277.191 -60.3486 284.286 -39.8308C289.017 -26.1522 291.686 -11.8221 292.228 2.45442C293.457 36.8529 283.098 71.2245 278.481 109.625C277.388 118.906 276.714 128.217 276.339 137.291C275.124 168.346 277.939 197.156 282.9 220.913C289.22 251.617 298.738 275.244 314.408 299.974C317.833 305.362 321.605 310.983 325.699 316.602C340.676 337.002 360.619 356.732 380.629 379.553C403.075 405.147 424.844 436.189 434.789 466.668C436.106 470.759 437.327 474.817 438.188 478.977C445.05 509.073 441.673 535.403 435.316 561.954C430.355 582.851 422.997 604.738 410.767 627.328C404.097 639.567 396.04 651.782 387.791 663.931C370.812 688.97 351.198 716.849 354.312 747.808C357.856 783.233 388.266 806.694 419.055 820.172C423.302 822.094 427.717 823.847 431.977 825.432C467.433 838.478 503.935 844.158 537.795 855.971C546.294 858.907 554.646 862.248 562.852 865.992C607.904 886.671 646.544 920.36 669.913 960.363C693.128 1000.2 699.344 1045.18 695.217 1077.16" stroke="#FF5E00" stroke-miterlimit="10"/>
<path d="M145.534 -133.587C183.25 -133.962 219.429 -118.168 244.487 -91.7859C259.62 -75.9912 270.727 -56.475 276.993 -35.4497C281.196 -21.5002 283.337 -6.89915 283.256 7.61528C282.952 42.3901 270.598 76.6371 265.776 115.304C264.647 124.685 263.973 133.996 263.79 143.135C263.052 174.352 267.504 203.385 274.356 226.657C283.154 256.738 295.5 279.068 313.257 302.473C317.21 307.588 321.354 312.769 325.939 318.216C342.38 337.53 363.354 356.479 383.985 379.059C407.052 404.412 428.756 436.224 437.476 467.414C438.661 471.572 439.618 475.766 440.347 479.994C445.566 510.769 439.738 537.046 431.327 563.339C424.766 583.908 415.903 605.501 402.624 627.726C395.382 639.766 386.848 651.815 378.159 663.696C360.263 688.303 339.719 716.084 342.687 747.445C346.112 782.599 376.438 805.688 406.829 819.37C411.075 821.292 415.358 823.112 419.618 824.697C454.602 838.148 490.436 845.076 523.474 857.968C531.767 861.174 539.913 864.784 547.878 868.899C591.674 890.961 628.568 926.204 649.252 967.094C669.876 1007.85 672.24 1053.09 664.454 1083.01" stroke="#FF5E00" stroke-miterlimit="10"/>
<path d="M139.899 -133.173C177.921 -133.214 214.187 -116.481 238.724 -89.2582C253.637 -72.8587 264.069 -52.6681 269.676 -31.3044C273.445 -17.051 274.927 -2.11104 274.163 12.5073C272.327 47.6584 258.11 81.7128 252.952 120.715C251.691 130.163 251.171 139.64 251.084 148.811C250.882 180.324 256.911 209.445 265.559 232.2C276.799 261.759 291.878 282.76 311.984 304.703C316.369 309.512 321.041 314.421 325.962 319.529C343.961 337.79 365.871 355.926 386.992 378.332C410.68 403.444 432.258 435.893 439.813 467.927C440.829 472.254 441.654 476.515 442.156 480.778C445.828 512.266 437.454 538.456 426.989 564.491C418.792 584.834 408.557 606.064 394.229 627.924C386.414 639.765 377.44 651.547 368.239 663.364C349.521 687.57 327.915 715.322 330.81 746.882C334.021 781.733 364.358 804.484 394.351 818.368C398.501 820.257 402.747 822.178 406.97 823.864C441.482 837.72 476.648 845.894 508.864 859.865C516.951 863.341 524.856 867.322 532.556 871.573C574.965 895.087 610.245 931.815 628.28 973.491C646.219 1015.13 644.827 1060.66 633.383 1088.52" stroke="#FF5E00" stroke-miterlimit="10"/>
<path d="M134.264 -132.759C172.592 -132.466 208.981 -114.895 233.019 -86.5964C247.581 -69.5241 257.507 -48.828 262.381 -26.9239C265.586 -12.2985 266.577 2.81127 265.226 17.5665C261.821 53.1951 245.646 87.0241 240.415 126.225C239.118 135.773 238.598 145.249 238.665 154.587C238.941 186.262 246.606 215.606 257.145 237.877C270.767 266.779 288.768 286.517 310.961 307.135C315.778 311.639 320.976 316.275 326.329 321.078C345.792 338.253 368.732 355.608 390.437 377.875C414.71 402.846 436.258 435.964 442.589 468.709C443.473 473.104 444.034 477.501 444.309 481.798C446.471 513.898 435.479 540.203 422.901 565.846C413.068 585.963 401.461 606.83 386.12 628.225C377.734 639.868 368.283 651.484 358.737 663.066C339.067 686.941 316.53 714.596 319.316 746.457C322.372 781.137 352.625 803.517 382.256 817.504C386.369 819.493 390.555 821.28 394.742 823.067C428.782 837.328 463.281 846.749 494.675 861.799C502.557 865.544 510.256 869.795 517.75 874.315C558.868 899.314 592.344 937.461 607.789 980.057C623.139 1022.62 617.896 1068.41 602.794 1094.2" stroke="#FF5E00" stroke-miterlimit="10"/>
<path d="M128.665 -132.445C167.262 -131.717 203.811 -113.41 227.292 -84.1693C241.538 -66.5254 250.922 -45.2228 255.063 -22.7784C257.836 -7.84909 258.204 7.49863 256.231 22.4918C251.294 58.4969 233.256 92.1336 227.689 131.67C226.356 141.318 225.895 150.927 226.094 160.197C226.906 192.168 236.089 221.466 248.577 243.387C264.639 271.767 285.409 290.075 309.878 309.434C315.222 313.666 320.756 317.963 326.577 322.36C347.503 338.45 371.569 355.057 393.668 377.118C418.561 401.848 440.044 435.737 445.151 469.192C445.807 473.622 446.2 478.187 446.306 482.654C446.922 515.466 433.481 541.718 418.753 567.07C407.321 586.86 394.21 607.433 377.822 628.463C368.826 640.008 358.936 651.357 348.913 662.774C328.327 686.216 304.86 713.774 307.536 745.935C310.379 780.312 340.643 802.354 369.875 816.544C373.988 818.533 378.042 820.388 382.192 822.276C415.725 837.042 449.628 847.507 480.164 863.737C487.84 867.753 495.334 872.273 502.587 877.164C542.413 903.646 574.217 943.145 586.942 986.729C599.608 1030.18 590.609 1076.25 571.946 1100.02" stroke="#FF5E00" stroke-miterlimit="10"/>
<path d="M123.125 -131.997C161.932 -130.968 198.605 -111.823 221.683 -81.4742C235.614 -63.2586 244.456 -41.3496 247.864 -18.3648C250.109 -3.16451 249.95 12.4541 247.295 27.5513C240.826 63.9329 220.794 97.4455 215.023 137.248C213.558 146.964 213.193 156.606 213.546 166.041C214.835 198.175 225.654 227.696 240.032 249.133C258.571 276.891 282.13 294.004 308.721 311.937C314.497 315.863 320.558 319.889 326.811 323.98C349.199 338.984 374.295 354.811 397.015 376.632C422.529 401.121 443.946 435.78 447.829 469.946C448.317 474.544 448.615 479.076 448.457 483.679C447.563 517.103 431.541 543.369 414.665 568.431C401.597 587.994 387.078 608.306 369.678 628.871C360.111 640.217 349.744 651.4 339.281 662.55C317.874 685.593 293.346 713.122 295.912 745.584C298.637 779.69 328.78 801.463 357.651 815.755C361.668 817.71 365.685 819.666 369.739 821.521C402.8 836.693 436.037 848.404 465.751 865.713C473.185 870.099 480.51 874.787 487.462 879.915C525.998 907.882 556.093 948.833 566.134 993.304C576.211 1037.67 563.459 1084.04 541.043 1105.71" stroke="#FF5E00" stroke-miterlimit="10"/>
<path d="M117.489 -131.582C156.602 -130.22 193.362 -110.136 215.92 -78.9463C229.535 -60.159 237.798 -37.5427 240.547 -14.2194C242.324 1.38576 241.541 17.2424 238.3 32.4765C230.299 69.2348 208.406 102.555 202.299 142.694C200.797 152.51 200.432 162.15 200.976 171.651C202.801 204.082 215.196 233.691 231.465 254.644C252.443 281.881 278.77 297.564 307.577 314.105C313.88 317.759 320.277 321.446 326.961 325.232C350.907 339.185 376.938 354.198 400.148 375.846C426.341 400.229 447.633 435.524 450.293 470.401C450.649 475.067 450.682 479.734 450.393 484.405C447.953 518.541 429.387 544.721 410.458 569.526C395.755 588.863 379.77 608.78 361.416 629.014C351.3 640.396 340.457 651.414 329.518 662.398C307.195 685.008 281.7 712.542 284.194 745.203C286.763 779.14 316.859 800.441 345.332 814.936C349.312 816.993 353.329 818.948 357.251 820.871C389.745 836.415 422.314 849.372 451.303 867.792C458.532 872.448 465.651 877.406 472.398 882.804C509.643 912.254 537.934 954.625 545.424 999.915C552.818 1045.17 536.312 1091.83 510.241 1111.44" stroke="#FF5E00" stroke-miterlimit="10"/>
<path d="M111.853 -131.167C151.272 -129.471 188.155 -108.55 210.215 -76.2843C223.515 -56.9254 231.236 -33.7027 233.253 -9.83899C234.502 6.03715 233.288 22.1977 229.328 37.6369C219.797 74.7719 195.91 107.969 189.694 148.407C188.156 158.323 187.85 168.098 188.489 177.631C190.791 210.224 204.858 239.954 222.98 260.525C246.338 287.107 275.549 301.629 306.574 316.778C313.307 320.127 320.268 323.441 327.347 327.022C352.755 339.89 379.817 354.124 403.61 375.632C430.425 399.774 451.687 435.738 453.087 471.427C453.311 476.16 453.081 480.964 452.564 485.669C448.579 520.518 427.469 546.612 406.392 571.126C390.054 590.238 372.698 609.792 353.296 629.662C342.586 640.611 331.303 651.362 319.983 662.214C296.744 684.392 270.32 711.829 272.667 744.892C275.023 778.525 305.094 799.591 333.205 814.187C337.09 816.211 341.07 818.268 344.991 820.19C377.014 836.139 408.953 850.241 437.084 869.841C444.107 874.766 451.022 879.994 457.563 885.661C493.518 916.595 520.101 960.418 525.004 1006.63C529.811 1052.81 509.492 1099.61 479.729 1117.27" stroke="#FF5E00" stroke-miterlimit="10"/>
<path d="M106.312 -130.719C146.036 -128.689 183.043 -106.93 204.546 -73.7232C217.531 -53.7928 224.711 -29.9636 225.9 -5.5926C226.717 10.5875 224.879 26.9859 220.334 42.5622C209.235 80.1748 183.487 113.18 176.972 153.852C175.397 163.869 175.091 173.643 175.885 183.342C178.723 216.232 194.365 246.051 214.377 266.138C240.174 292.199 272.115 305.393 305.355 319.15C312.52 322.194 320.008 325.235 327.423 328.479C354.292 340.262 382.384 353.716 406.798 374.983C434.233 398.885 455.429 435.62 455.474 472.087C455.53 476.989 455.168 481.86 454.388 486.701C448.894 522.162 425.168 548.371 402.038 572.629C384.066 591.514 365.243 610.674 344.83 630.079C333.548 640.829 321.789 651.414 310.03 662C285.838 683.846 258.485 711.187 260.664 744.416C262.902 777.78 292.888 798.475 320.565 813.375C324.449 815.399 328.297 817.523 332.182 819.547C363.734 835.9 395.005 851.248 422.41 871.959C429.229 877.154 435.901 882.753 442.237 888.69C476.902 921.108 501.815 966.281 503.998 1013.48C506.123 1060.54 482.052 1107.64 448.635 1123.23" stroke="#FF5E00" stroke-miterlimit="10"/>
<path d="M100.675 -130.303C140.704 -127.94 177.835 -105.344 198.745 -71.0944C211.415 -50.5923 218.053 -26.1569 218.546 -1.34645C218.931 15.1375 216.435 31.875 211.208 47.5553C198.578 85.5446 170.874 118.325 164.118 159.366C162.448 169.349 162.26 179.39 163.186 189.021C166.464 222.174 183.777 252.115 205.641 271.82C233.914 297.259 268.679 309.158 304.098 321.625C311.827 324.295 319.614 327.099 327.555 330.071C355.982 340.802 385.008 353.443 409.911 374.539C437.93 398.3 459.001 435.672 457.919 472.882C457.747 477.819 457.253 482.758 456.305 487.767C449.266 523.941 423.093 550.097 397.816 574.065C378.209 592.724 358.016 611.522 336.555 630.563C324.738 641.014 312.466 651.535 300.231 661.955C275.219 683.402 246.937 710.646 248.874 744.245C250.994 777.338 280.955 797.797 308.175 812.767C312.023 814.891 315.775 816.982 319.659 819.006C350.741 835.764 381.345 852.357 407.929 874.147C414.638 879.645 421.01 885.48 427.045 891.653C460.42 925.555 483.626 972.18 483.164 1020.16C482.702 1068.15 454.879 1115.54 417.808 1129.07" stroke="#FF5E00" stroke-miterlimit="10"/>
<path d="M95.0733 -129.989C135.408 -127.291 172.626 -103.758 193.111 -68.6343C205.429 -47.4598 211.525 -22.418 211.323 2.83181C211.144 19.6877 208.158 36.5951 202.309 52.5135C188.148 90.8796 158.547 123.569 151.492 164.845C149.786 174.928 149.598 184.968 150.773 194.798C154.623 228.147 173.475 258.278 197.133 277.467C227.747 302.352 265.433 312.99 303.008 323.931C311.168 326.296 319.481 328.828 327.759 331.462C357.647 341.108 387.798 353.003 413.19 373.926C441.829 397.448 462.834 435.589 460.529 473.51C460.226 478.515 459.469 483.59 458.293 488.634C449.709 525.52 420.993 551.59 393.57 575.268C372.365 593.601 350.67 612.105 328.257 630.815C315.868 641.067 303.157 651.322 290.541 661.609C264.614 682.625 235.366 709.873 237.23 743.671C239.195 776.596 269.109 796.584 295.931 811.757C299.683 813.848 303.435 815.939 307.151 818.131C337.725 835.395 367.735 853.032 393.462 876.002C399.966 881.769 406.132 887.873 411.963 894.316C444.048 929.701 465.451 977.745 462.403 1026.65C459.26 1075.52 427.686 1123.2 386.961 1134.67" stroke="#FF5E00" stroke-miterlimit="10"/>
<path d="M89.435 -129.573C130.075 -126.542 167.321 -102.204 187.308 -66.0056C199.312 -44.2596 204.866 -18.6115 203.932 7.17869C203.322 24.3385 199.713 41.4839 193.278 57.5394C177.587 96.2823 146.03 128.747 138.83 170.424C137.088 180.608 136.959 190.782 138.266 200.543C142.556 234.156 163.02 264.275 188.624 283.114C221.713 307.378 262.127 316.688 301.881 326.339C310.567 328.432 319.217 330.626 328.02 332.987C359.37 341.55 390.55 352.665 416.43 373.416C445.69 396.697 466.666 435.508 463.102 474.241C462.631 479.414 461.741 484.556 460.339 489.635C450.247 527.133 418.916 553.319 389.478 576.639C366.639 594.746 343.574 612.889 320.018 631.202C307.058 641.256 293.966 651.378 280.779 661.467C253.937 682.051 223.76 709.202 225.478 743.403C227.23 776.025 257.118 795.776 283.579 811.051C287.295 813.243 291.046 815.334 294.666 817.494C324.77 835.162 354.113 854.045 379.02 878.092C385.318 884.129 391.279 890.503 396.905 897.216C427.7 934.084 447.434 983.478 441.668 1033.37C435.903 1083.26 400.52 1131.1 356.141 1140.51" stroke="#FF5E00" stroke-miterlimit="10"/>
<path d="M83.8913 -129.124C124.741 -125.793 162.206 -100.585 181.732 -63.4115C201.258 -26.2384 202.205 21.9975 184.379 62.4975C167.158 101.617 133.61 133.959 126.205 175.903C118.171 221.376 144.59 265.018 180.116 288.762C215.642 312.505 258.879 320.521 300.848 328.781C342.817 337.04 385.889 346.702 419.801 372.839C453.713 398.976 476.013 446.304 462.515 490.57C450.878 528.781 417.006 554.881 385.421 577.911C347.418 605.648 309.284 633.453 271.281 661.191C243.487 681.444 212.381 708.499 214.026 742.899C215.564 775.219 245.464 794.633 271.528 810.111C312.451 834.357 352.568 861.731 382.015 899.948C411.522 938.3 429.549 989.146 421.103 1039.93C412.657 1090.71 373.524 1138.83 325.494 1146.18" stroke="#FF5E00" stroke-miterlimit="10"/>
<path d="M106.944 -124.39C144.471 -117.211 176.401 -90.0566 191.201 -54.065C205.965 -17.9724 203.075 26.3228 182.749 65.7275C163.438 103.212 129.271 135.79 120.695 178.007C111.526 223.651 136.369 268.676 171.694 293.258C206.08 317.174 248.608 325.06 289.54 334.097C332.07 343.46 375.486 354.831 410.143 381.566C443.764 407.602 466.498 453.714 453.814 497.803C442.897 535.805 409.661 562.234 378.307 585.227C340.836 612.69 303.211 639.986 265.74 667.449C238.14 687.766 207.383 715.052 209.029 749.449C210.625 781.9 240.28 801.684 266.4 817.294C306.686 841.207 346.276 867.943 375.448 905.723C404.619 943.502 422.276 993.877 413.859 1043.98C405.442 1094.09 367.045 1141.66 319.77 1149.62" stroke="#FF5E00" stroke-miterlimit="10"/>
<path d="M129.933 -119.787C164.041 -108.794 190.475 -79.7941 200.513 -44.883C210.552 -9.97183 203.79 30.4841 181.002 68.6926C159.6 104.543 124.852 137.256 115.164 179.879C104.957 225.727 128.128 272.101 163.348 297.554C196.689 321.676 238.375 329.499 278.306 339.213C321.398 349.68 365.06 362.726 400.557 390.091C433.96 415.824 457.114 461.057 445.186 504.835C434.893 542.594 402.292 569.353 371.265 592.342C334.422 619.563 297.116 646.284 260.272 673.506C232.735 693.955 202.423 721.504 203.973 755.865C205.496 788.515 234.906 808.668 261.081 824.411C300.694 848.09 339.852 874.223 368.593 911.398C397.488 948.74 414.621 998.475 406.291 1048.04C397.962 1097.6 360.279 1144.4 313.76 1152.95" stroke="#FF5E00" stroke-miterlimit="10"/>
<path d="M153.013 -115.148C183.739 -100.443 204.737 -69.4641 210.051 -35.7342C215.461 -1.97142 204.866 34.5449 179.448 71.7263C156.052 105.975 120.4 138.825 109.733 181.786C98.2599 227.873 119.892 275.528 154.97 301.953C187.17 326.248 228.169 334.175 267.004 344.534C310.62 356.204 354.565 370.825 390.937 398.718C424.086 424.249 447.732 468.401 436.56 511.868C426.986 549.418 394.926 576.473 364.226 599.457C327.974 626.539 291.118 652.617 254.807 679.564C227.37 700.044 197.502 727.857 199.052 762.215C200.539 794.962 229.799 815.517 255.992 831.493C294.932 854.94 333.658 880.469 362.004 916.938C390.563 953.708 407.326 1002.97 399.025 1051.86C390.725 1100.74 353.779 1146.99 308.052 1156.05" stroke="#FF5E00" stroke-miterlimit="10"/>
<path d="M176.054 -110.409C203.363 -91.8901 218.866 -59.0673 219.517 -26.3846C220.205 6.19712 205.872 38.8075 177.861 74.8611C152.604 107.441 116.145 140.461 104.33 183.928C91.7237 230.186 111.816 279.122 146.752 306.518C177.944 330.919 218.028 338.986 255.994 349.952C300.17 362.725 344.362 379.022 381.572 407.545C414.466 432.874 438.472 476.012 428.152 519.202C419.296 556.543 387.872 583.926 357.499 606.907C321.875 633.746 285.339 659.25 249.656 685.956C222.281 706.568 192.895 734.542 194.444 768.897C195.99 801.776 224.873 822.767 251.157 838.775C289.388 862.09 327.717 886.915 355.632 922.779C383.82 959.079 400.212 1007.87 391.977 1055.98C383.742 1104.09 347.534 1149.79 302.562 1159.44" stroke="#FF5E00" stroke-miterlimit="10"/>
<path d="M199.127 -105.769C223.115 -83.4062 233.067 -48.8731 229.02 -17.1366C225.023 14.1634 207.013 43.0024 176.279 77.9962C149.125 109.008 111.764 142.165 98.8745 185.937C85.23 232.399 103.689 282.582 138.387 310.917C168.57 335.422 208.708 341.24 244.741 355.171C288.385 372.073 334.01 387.051 371.962 416.17C404.601 441.297 429.063 483.456 419.533 526.234C411.302 563.332 380.513 591.045 350.468 614.021C315.472 640.62 279.291 665.447 244.2 692.013C216.925 712.656 187.947 740.994 189.496 775.346C190.969 808.423 219.702 829.817 246.041 845.957C283.598 869.039 321.494 893.26 348.979 928.52C376.831 964.248 392.757 1012.53 384.705 1060.14C376.558 1107.7 341.064 1152.63 296.849 1162.87" stroke="#FF5E00" stroke-miterlimit="10"/>
<path d="M222.097 -101.112C242.672 -74.9357 247.266 -38.6245 238.367 -7.9988C229.686 22.0215 207.998 47.0915 174.669 80.9601C145.747 110.338 107.384 143.601 93.3833 187.782C78.6044 234.418 95.5271 285.884 130.087 315.193C159.17 339.771 198.661 345.593 233.529 360.37C277.425 378.948 323.614 395.029 362.409 424.78C394.833 449.606 419.752 490.787 410.941 533.358C403.391 570.35 373.175 598.26 343.417 621.334C309.045 647.693 273.18 671.948 238.807 698.306C211.593 719.083 183.093 747.585 184.547 781.903C185.983 815.081 214.473 836.844 240.929 853.252C277.817 876.103 315.322 899.621 342.437 934.413C370.016 969.705 385.515 1017.39 377.491 1064.32C369.467 1111.25 334.611 1155.59 291.278 1166.37" stroke="#FF5E00" stroke-miterlimit="10"/>
<path d="M244.994 -96.6043C262.193 -66.7158 261.392 -28.5252 247.701 1.12401C234.431 29.8981 209.065 51.1994 172.914 83.9782C142.187 111.823 102.917 145.226 87.8042 189.816C71.8908 236.626 87.1826 289.344 121.7 319.659C149.779 344.344 188.588 350.271 222.27 365.659C266.549 385.845 313.136 403.198 352.846 433.379C385.02 458.005 410.302 498.177 402.34 540.473C395.508 577.259 365.888 605.601 336.394 628.539C302.644 654.659 267.189 678.373 233.344 704.46C206.226 725.269 178.167 754.037 179.621 788.354C181.02 821.632 209.328 843.9 235.783 860.307C272.003 882.927 308.985 905.811 335.769 940.034C363.016 974.757 378.147 1021.97 370.115 1068.33C362.082 1114.69 328.031 1158.29 285.448 1169.67" stroke="#FF5E00" stroke-miterlimit="10"/>
<path d="M267.948 -91.9632C281.735 -58.2618 275.577 -18.2927 257.093 10.38C239.331 37.9408 210.286 55.4737 171.218 87.1297C138.781 113.475 98.5456 146.884 82.2252 191.85C65.2725 238.867 78.9335 292.837 113.181 324.193C140.256 348.985 178.215 355.185 210.88 371.016C255.483 392.676 302.658 411.367 343.116 442.147C375.039 466.573 400.816 505.667 393.608 547.656C387.398 584.203 358.505 612.909 329.239 635.812C296.076 661.793 260.972 684.834 227.75 710.681C200.786 731.657 173.073 760.657 174.563 794.873C175.985 828.385 203.992 850.889 230.564 867.564C266.116 889.953 302.671 912.235 329.064 945.756C355.943 980.011 370.743 1026.66 362.738 1072.34C354.734 1118.03 321.414 1161.09 279.581 1173.07" stroke="#FF5E00" stroke-miterlimit="10"/>
<path d="M290.937 -87.423C301.313 -49.9087 289.929 -8.22908 266.521 19.5351C244.266 45.8827 211.543 59.6471 169.595 90.0796C135.485 114.825 94.1152 148.408 76.8146 193.716C58.7274 240.907 70.8893 296.059 104.963 328.49C130.975 353.255 166.861 362.824 199.885 376.169C246.817 395.231 292.481 419.3 333.781 450.712C365.455 474.937 391.69 513.055 385.236 554.737C379.743 591.077 351.386 620.081 322.443 642.981C289.902 668.723 255.208 691.225 222.514 716.8C195.646 737.808 168.374 767.073 169.732 801.357C171.118 834.969 198.979 857.877 225.477 874.753C260.361 896.911 296.489 918.592 322.455 951.511C349.097 985.23 363.339 1031.34 355.421 1076.49C347.54 1121.54 314.894 1163.92 273.81 1176.5" stroke="#FF5E00" stroke-miterlimit="10"/>
<path d="M313.888 -82.7827C320.984 -41.5235 304.266 2.16921 275.947 28.6893C249.2 53.8237 212.763 63.9207 167.934 93.1297C132.078 116.477 89.7791 149.964 71.2712 195.648C52.1448 243.047 62.676 299.451 96.5168 332.822C121.562 357.593 156.525 367.637 188.531 381.425C235.92 401.893 281.944 427.335 324.124 459.277C355.547 483.303 382.182 520.31 376.577 561.718C371.801 597.852 343.98 627.154 315.36 650.052C283.443 675.555 249.063 697.483 216.991 722.819C190.183 743.961 163.388 773.391 164.746 807.674C166.096 841.386 193.679 864.765 220.367 881.707C254.619 903.534 290.32 924.613 315.823 957.031C342.097 990.282 356.008 1035.83 348.118 1080.3C340.227 1124.78 308.35 1166.52 268.052 1179.59" stroke="#FF5E00" stroke-miterlimit="10"/>
<path d="M336.874 -78.2439C340.558 -33.172 318.579 12.332 285.278 37.8099C254.039 61.7311 213.982 68.1938 166.214 96.0455C128.744 117.926 85.2522 151.455 65.6324 197.547C45.3353 245.222 54.4403 302.607 88.0707 337.153C112.148 361.93 146.189 372.45 177.213 386.579C225.19 408.385 271.539 435.301 314.467 467.842C345.676 491.567 372.732 527.699 367.881 568.799C363.728 604.694 336.634 634.36 308.241 657.223C276.947 682.486 242.94 703.976 211.528 728.972C184.779 750.247 158.425 779.942 159.819 814.124C161.132 847.937 188.569 871.719 215.184 888.863C248.768 910.459 284.042 930.936 309.213 962.785C335.156 995.468 348.699 1040.54 340.836 1084.35C332.974 1128.15 301.865 1169.25 262.316 1182.92" stroke="#FF5E00" stroke-miterlimit="10"/>
<path d="M359.727 -73.6373C360 -24.7527 332.723 22.6634 294.572 47.0311C258.804 69.8401 215.129 72.6685 164.421 99.1628C125.205 119.645 80.7845 153.078 60.0529 199.58C38.7167 247.462 46.2276 305.997 79.5523 341.686C102.662 366.469 135.685 377.431 165.823 391.935C214.22 415.248 260.967 443.436 304.737 476.609C335.696 500.134 363.248 535.188 359.15 575.981C355.714 611.67 329.156 641.634 301.086 664.494C270.319 689.486 236.818 710.469 205.933 735.192C179.376 756.534 153.367 786.461 154.761 820.642C156.097 854.69 183.328 878.741 209.965 896.119C242.882 917.484 277.728 937.36 302.509 968.507C328.178 1000.75 341.295 1045.23 333.424 1088.46C325.685 1131.63 295.248 1172.05 256.45 1186.32" stroke="#FF5E00" stroke-miterlimit="10"/>
<path d="M382.711 -69.0989C379.609 -16.5026 347.093 32.9595 303.996 56.184C263.7 77.8808 216.406 77.0751 162.796 102.111C121.93 121.228 76.4481 154.634 54.5458 201.412C32.0752 249.468 38.0874 309.186 71.2382 345.95C93.5125 370.67 125.445 382.277 154.697 397.155C203.551 421.874 250.658 451.435 295.308 485.139C326.016 508.463 353.931 542.509 350.682 583.027C347.964 618.51 321.905 648.873 294.195 671.63C264.05 696.383 230.863 716.793 200.601 741.277C174.103 762.752 148.572 792.844 149.834 827.093C151.133 861.241 178.087 885.763 204.914 903.207C237.163 924.341 271.486 943.582 295.936 974.161C321.237 1005.94 333.927 1049.81 326.275 1092.44C318.527 1135.03 288.859 1174.82 250.846 1189.59" stroke="#FF5E00" stroke-miterlimit="10"/>
<path d="M405.693 -64.5605C399.275 -8.11878 361.367 43.2224 313.456 65.2359C268.633 85.8206 217.72 81.3808 161.171 105.06C118.655 122.811 72.053 156.056 49.0979 203.377C25.5884 251.64 30.1383 312.441 62.8881 350.313C84.1951 375.04 115.168 387.223 143.476 402.342C192.808 428.701 240.254 459.401 285.747 493.736C316.3 516.894 344.614 549.829 342.083 590.141C339.986 625.384 314.654 656.111 287.172 678.833C257.65 703.347 224.872 723.217 195.138 747.43C168.7 769.038 143.609 799.395 144.907 833.542C146.17 867.791 172.978 892.717 199.731 910.362C231.348 931.164 265.245 949.804 289.231 979.882C314.201 1011.09 326.487 1054.6 318.862 1096.55C311.238 1138.51 282.242 1177.61 244.979 1192.98" stroke="#FF5E00" stroke-miterlimit="10"/>
<path d="M428.637 -59.922C418.809 0.332123 375.604 53.5854 322.843 74.4888C273.492 93.9613 218.925 85.9883 159.509 108.108C115.307 124.596 67.6801 157.713 43.5544 205.308C19.006 253.779 22.13 315.561 54.5378 354.677C74.914 379.308 104.797 392.135 132.255 407.528C182.007 435.394 229.946 467.399 276.186 502.333C306.525 525.19 335.261 557.25 333.52 597.154C332.141 632.19 307.345 663.216 280.149 686.036C251.25 710.31 218.786 729.608 189.674 753.582C163.332 775.223 138.682 805.845 139.981 839.992C141.17 874.442 167.773 899.637 194.644 917.55C225.593 938.121 259.063 956.16 282.622 985.636C307.319 1016.41 319.179 1059.32 311.582 1100.6C303.985 1141.88 275.722 1180.45 239.207 1196.41" stroke="#FF5E00" stroke-miterlimit="10"/>
<path d="M451.616 -55.3846C438.377 8.68181 389.875 63.8471 332.169 83.6075C278.254 102.069 220.069 90.4619 157.751 111.124C111.862 126.347 63.2111 159.336 38.0101 207.24C12.3275 255.885 14.0847 318.782 46.0553 359.108C65.5959 383.677 94.3522 397.25 120.902 412.782C171.038 442.256 219.374 475.533 266.624 510.93C296.714 533.587 325.813 564.637 324.921 604.267C324.258 639.097 299.998 670.421 273.125 693.239C244.849 717.274 212.795 736.032 184.305 759.767C158.118 781.574 133.849 812.328 135.053 846.441C136.301 881.025 162.663 906.59 189.46 924.705C219.742 945.045 252.784 962.482 275.953 991.256C300.319 1021.46 311.811 1063.9 304.242 1104.51C296.636 1145.22 269.177 1183.04 233.412 1199.61" stroke="#FF5E00" stroke-miterlimit="10"/>
<path d="M474.558 -50.7467C457.945 17.0311 404.074 74.3101 341.591 92.7587C283.148 110.108 221.404 95.001 156.125 114.071C108.55 128.03 58.9106 160.79 32.5027 209.07C5.78122 257.922 6.11264 321.801 37.7414 363.37C56.3513 387.844 84.0173 402.061 109.681 417.968C160.164 449.151 208.971 483.498 257.064 519.527C286.903 541.983 316.497 571.957 316.358 611.279C316.318 645.87 292.689 677.525 266.139 700.341C238.389 724.104 206.84 742.356 178.878 765.818C152.75 787.759 128.922 818.778 130.126 852.891C131.338 887.575 157.422 913.612 184.409 931.792C214.059 951.801 246.638 968.737 269.476 996.942C293.474 1026.68 304.539 1068.52 297.057 1108.59C289.575 1148.67 262.752 1185.91 227.772 1202.98" stroke="#FF5E00" stroke-miterlimit="10"/>
<path d="M497.438 -46.2432C477.415 25.3468 418.248 84.5378 350.916 101.876C287.946 118.113 222.511 99.5746 154.367 117.086C105.105 129.78 54.4412 162.412 26.8265 211.068C-0.874856 260.262 -2.02805 324.988 29.1635 367.767C46.938 392.179 73.4773 407.142 98.3278 423.222C149.063 456.079 198.53 491.563 247.371 528.19C276.96 550.447 307.012 579.444 307.627 618.459C308.267 652.945 285.211 684.797 258.983 707.611C231.856 731.135 200.68 748.947 173.282 772.037C147.309 794.144 123.957 825.327 125.066 859.408C126.205 894.293 152.179 920.632 179.093 939.014C208.076 958.792 240.228 975.127 262.638 1002.73C286.4 1031.94 297.003 1073.27 289.548 1112.67C282.094 1152.07 256.039 1188.68 221.904 1206.37" stroke="#FF5E00" stroke-miterlimit="10"/>
<path d="M520.378 -41.6057C497.04 33.8294 432.54 95.0331 360.3 111.128C292.767 126.354 223.678 104.282 152.704 120.134C101.756 131.564 50.1042 163.967 21.3779 213.032C-7.45745 262.4 -9.8457 328.174 20.9087 372.163C37.8842 396.412 63.1655 412.187 87.2029 428.44C138.249 463.108 188.223 499.56 237.942 536.718C267.281 558.775 297.733 586.662 299.16 625.504C300.422 659.751 278.092 691.967 252.092 714.745C225.588 738.03 194.821 755.303 167.95 778.121C142.073 800.261 119.162 831.709 120.27 865.789C121.373 900.775 147.238 927.416 174.137 946.134C202.488 965.58 234.118 981.281 256.161 1008.42C279.555 1037.15 289.827 1077.92 282.364 1116.75C274.996 1155.61 249.614 1191.54 216.265 1209.74" stroke="#FF5E00" stroke-miterlimit="10"/>
<path d="M543.351 -37.0698C516.639 42.0764 446.712 105.26 369.623 120.245C297.563 134.359 224.784 108.855 150.945 123.148C98.1783 133.382 45.6339 165.589 15.7373 214.93C-14.1369 264.505 -17.819 331.192 12.3666 376.459C28.5068 400.646 52.5662 417.134 75.7544 433.66C126.98 470.205 177.592 507.558 228.154 545.349C257.279 567.105 288.152 594.117 290.37 632.55C292.349 666.591 270.555 699.105 244.972 721.914C218.995 744.927 188.638 761.661 162.389 784.239C136.667 806.546 114.101 838.226 115.151 872.172C116.313 907.291 141.804 934.371 168.893 953.154C196.577 972.369 227.78 987.469 249.433 1013.9C272.496 1042.07 282.304 1082.34 274.964 1120.53C267.624 1158.72 243.01 1194 210.41 1212.8" stroke="#FF5E00" stroke-miterlimit="10"/>
<path d="M566.289 -32.433C536.167 50.5252 460.944 115.621 379.043 129.395C302.361 142.364 225.987 113.461 149.319 126.095C94.8296 135.165 41.2383 167.009 10.2891 216.893C-20.719 266.643 -25.5996 334.276 4.0762 380.955C19.381 405.08 42.2188 422.28 64.594 438.979C115.903 477.368 167.249 515.656 218.653 554.078C247.528 575.634 278.896 601.569 281.831 639.796C284.527 673.63 263.269 706.443 238.009 729.25C212.655 752.024 182.707 768.217 157.044 790.658C131.381 813.098 109.293 844.943 110.305 878.989C111.431 914.209 136.776 941.692 163.792 960.676C190.808 979.661 221.585 994.159 242.811 1019.99C265.601 1047.73 274.983 1087.39 267.73 1125.04C260.418 1162.56 236.571 1197.2 204.72 1216.6" stroke="#FF5E00" stroke-miterlimit="10"/>
</svg>
